<svg width="1599" height="57" viewBox="0 0 1599 57" fill="none" xmlns="http://www.w3.org/2000/svg">
<path d="M40.7297 33.9849V39.2906H31.4468L29.3599 51.9811H23.4591L25.546 39.2906H14.3921L12.3053 51.9811H6.33253L8.49134 39.2906H0V33.9849H9.35487L11.2258 22.5849H3.0943V17.2792H12.0894L14.1762 4.66038H20.1489L18.0621 17.2792H29.216L31.3028 4.66038H37.2036L35.1167 17.2792H43.8959V22.5849H34.2532L32.3822 33.9849H40.7297ZM15.2556 33.9849H26.4095L28.3524 22.5849H17.1986L15.2556 33.9849Z" fill="white"/>
<path d="M91.915 39.434C90.4757 43.7359 88.0051 47.034 84.503 49.3283C81.0009 51.5748 76.9232 52.6981 72.2697 52.6981C67.6643 52.6981 63.6824 51.7182 60.3243 49.7585C57.0141 47.7987 54.4475 45.0025 52.6245 41.3698C50.8015 37.6893 49.89 33.3396 49.89 28.3208C49.89 23.3019 50.8015 18.9761 52.6245 15.3434C54.4475 11.6629 57.0141 8.84277 60.3243 6.88302C63.6824 4.92327 67.6403 3.9434 72.1978 3.9434C76.8992 3.9434 80.881 4.92327 84.1432 6.88302C87.4054 8.84277 89.7561 11.7346 91.1954 15.5585L83.9273 18.7849C82.1043 13.3359 78.3384 10.6113 72.6295 10.6113C68.168 10.6113 64.5939 12.1648 61.9074 15.2717C59.2689 18.3308 57.9496 22.6805 57.9496 28.3208C57.9496 33.9132 59.2209 38.2629 61.7635 41.3698C64.3061 44.4767 67.8562 46.0302 72.4137 46.0302C75.3401 46.0302 77.8587 45.2893 79.9695 43.8075C82.1283 42.278 83.6635 40.0075 84.575 36.9962L91.915 39.434Z" fill="white"/>
<path d="M121.102 4.66038C126.187 4.66038 130.217 5.92704 133.191 8.46038C136.213 10.9937 137.725 14.4113 137.725 18.7132C137.725 22.1547 136.789 24.9987 134.918 27.2453C133.095 29.444 130.577 30.9736 127.362 31.834L140.531 51.9811H131.68L119.591 33.0528H109.372V51.9811H101.744V4.66038H121.102ZM120.526 26.6717C126.667 26.6717 129.737 24.0906 129.737 18.9283C129.737 13.766 126.667 11.1849 120.526 11.1849H109.372V26.6717H120.526Z" fill="white"/>
<path d="M183.386 4.66038L166.403 33.8415V51.9811H158.703V33.8415L141.793 4.66038H150.356L158.847 19.8604L162.589 26.9585L166.331 19.8604L174.751 4.66038H183.386Z" fill="white"/>
<path d="M208.216 4.66038C213.253 4.66038 217.283 5.97484 220.305 8.60377C223.376 11.2327 224.911 14.8654 224.911 19.5019C224.911 24.0906 223.376 27.7233 220.305 30.4C217.283 33.0289 213.253 34.3434 208.216 34.3434H197.638V51.9811H189.938V4.66038H208.216ZM206.993 27.7472C210.399 27.7472 212.894 27.0541 214.477 25.6679C216.108 24.2818 216.923 22.2264 216.923 19.5019C216.923 16.7774 216.108 14.722 214.477 13.3358C212.894 11.9019 210.399 11.1849 206.993 11.1849H197.638V27.7472H206.993Z" fill="white"/>
<path d="M270.106 4.66038V11.2566H253.842V51.9811H246.143V11.2566H229.88V4.66038H270.106Z" fill="white"/>
<path d="M297.357 3.9434C301.963 3.9434 305.944 4.92327 309.303 6.88302C312.661 8.84277 315.251 11.6629 317.074 15.3434C318.897 18.9761 319.809 23.3019 319.809 28.3208C319.809 33.3396 318.897 37.6893 317.074 41.3698C315.251 45.0025 312.661 47.7987 309.303 49.7585C305.944 51.7182 301.963 52.6981 297.357 52.6981C292.752 52.6981 288.77 51.7182 285.412 49.7585C282.102 47.7987 279.535 45.0025 277.712 41.3698C275.889 37.6893 274.977 33.3396 274.977 28.3208C274.977 23.3019 275.889 18.9761 277.712 15.3434C279.535 11.6629 282.102 8.84277 285.412 6.88302C288.77 4.92327 292.752 3.9434 297.357 3.9434ZM297.357 10.6113C292.896 10.6113 289.394 12.1648 286.851 15.2717C284.308 18.3308 283.037 22.6805 283.037 28.3208C283.037 33.961 284.308 38.3346 286.851 41.4415C289.394 44.5006 292.896 46.0302 297.357 46.0302C301.867 46.0302 305.393 44.5006 307.935 41.4415C310.478 38.3346 311.749 33.961 311.749 28.3208C311.749 22.6805 310.478 18.3308 307.935 15.2717C305.393 12.1648 301.867 10.6113 297.357 10.6113Z" fill="white"/>
<path d="M353.309 0L331.865 57H324.669L346.113 0H353.309Z" fill="white"/>
<path d="M396.434 11.2566H369.809V24.9509H390.678V31.6189H369.809V51.9811H362.109V4.66038H396.434V11.2566Z" fill="white"/>
<path d="M413.801 4.66038V51.9811H406.101V4.66038H413.801Z" fill="white"/>
<path d="M422.273 51.9811L440.191 4.66038H449.402L467.32 51.9811H459.189L454.727 39.5774H434.722L430.188 51.9811H422.273ZM442.566 17.9962L436.953 33.3396H452.424L446.955 18.1396L444.796 11.3283H444.581L442.566 17.9962Z" fill="white"/>
<path d="M504.75 4.66038V11.2566H488.487V51.9811H480.787V11.2566H464.524V4.66038H504.75Z" fill="white"/>
<path d="M535.616 51.9811V4.66038H570.013V11.2566H543.315V24.8792H564.184V31.3321H543.315V45.3849H571.02V51.9811H535.616Z" fill="white"/>
<path d="M617.128 51.9811H608.061L596.332 33.7698L584.674 51.9811H575.823L592.302 27.9623L577.118 4.66038H586.185L597.051 21.8679L608.061 4.66038H616.481L601.081 27.6755L617.128 51.9811Z" fill="white"/>
<path d="M663.031 39.434C661.592 43.7359 659.122 47.034 655.619 49.3283C652.117 51.5748 648.04 52.6981 643.386 52.6981C638.781 52.6981 634.799 51.7182 631.441 49.7585C628.13 47.7987 625.564 45.0025 623.741 41.3698C621.918 37.6893 621.006 33.3396 621.006 28.3208C621.006 23.3019 621.918 18.9761 623.741 15.3434C625.564 11.6629 628.13 8.84277 631.441 6.88302C634.799 4.92327 638.757 3.9434 643.314 3.9434C648.016 3.9434 651.997 4.92327 655.26 6.88302C658.522 8.84277 660.873 11.7346 662.312 15.5585L655.044 18.7849C653.221 13.3359 649.455 10.6113 643.746 10.6113C639.284 10.6113 635.71 12.1648 633.024 15.2717C630.385 18.3308 629.066 22.6805 629.066 28.3208C629.066 33.9132 630.337 38.2629 632.88 41.3698C635.422 44.4767 638.973 46.0302 643.53 46.0302C646.456 46.0302 648.975 45.2893 651.086 43.8075C653.245 42.278 654.78 40.0075 655.691 36.9962L663.031 39.434Z" fill="white"/>
<path d="M680.561 4.66038V24.7358H704.02V4.66038H711.791V51.9811H704.02V31.3321H680.561V51.9811H672.861V4.66038H680.561Z" fill="white"/>
<path d="M720.234 51.9811L738.153 4.66038H747.363L765.282 51.9811H757.15L752.689 39.5774H732.684L728.15 51.9811H720.234ZM740.527 17.9962L734.914 33.3396H750.386L744.917 18.1396L742.758 11.3283H742.542L740.527 17.9962Z" fill="white"/>
<path d="M812.635 4.66038V51.9811H803.496L785.146 22.1547L780.54 13.766H780.468L780.756 21.4377V51.9811H773.704V4.66038H782.771L801.049 34.4151L805.726 42.9472H805.798L805.51 35.2038V4.66038H812.635Z" fill="white"/>
<path d="M845.976 52.6981C841.514 52.6981 837.628 51.7182 834.318 49.7585C831.056 47.7987 828.513 45.0025 826.69 41.3698C824.915 37.7371 824.028 33.3874 824.028 28.3208C824.028 23.3019 824.987 18.9761 826.906 15.3434C828.825 11.7107 831.488 8.91447 834.894 6.95472C838.348 4.94717 842.354 3.9434 846.911 3.9434C851.853 3.9434 855.834 4.87547 858.857 6.73962C861.927 8.55597 864.374 11.3522 866.197 15.1283L859.073 18.4981C858.161 15.8692 856.65 13.9094 854.539 12.6189C852.476 11.2805 849.958 10.6113 846.983 10.6113C842.522 10.6113 838.924 12.1648 836.189 15.2717C833.455 18.3786 832.087 22.7283 832.087 28.3208C832.087 34.0088 833.335 38.4063 835.829 41.5132C838.372 44.5723 842.09 46.1019 846.983 46.1019C850.533 46.1019 853.532 45.2176 855.978 43.4491C858.425 41.6327 859.648 38.8843 859.648 35.2038V33.8415H845.832V27.6038H866.485V51.9811H860.728L860.44 45.7434C859.049 47.9899 857.13 49.7107 854.683 50.9057C852.284 52.1006 849.382 52.6981 845.976 52.6981Z" fill="white"/>
<path d="M878.763 51.9811V4.66038H913.161V11.2566H886.463V24.8792H907.332V31.3321H886.463V45.3849H914.168V51.9811H878.763Z" fill="white"/>
<path d="M982.238 11.2566H955.613V24.9509H976.481V31.6189H955.613V51.9811H947.913V4.66038H982.238V11.2566Z" fill="white"/>
<path d="M991.904 51.9811V4.66038H1026.3V11.2566H999.604V24.8792H1020.47V31.3321H999.604V45.3849H1027.31V51.9811H991.904Z" fill="white"/>
<path d="M1037.65 51.9811V4.66038H1072.05V11.2566H1045.35V24.8792H1066.22V31.3321H1045.35V45.3849H1073.06V51.9811H1037.65Z" fill="white"/>
<path d="M1099.59 3.9434C1103.86 3.9434 1107.56 4.75597 1110.67 6.38113C1113.79 7.95849 1116.43 10.3006 1118.59 13.4075L1113.41 18.3547C1111.59 15.5824 1109.52 13.5987 1107.22 12.4038C1104.97 11.161 1102.28 10.5396 1099.16 10.5396C1095.66 10.5396 1093.12 11.2088 1091.53 12.5472C1089.95 13.8855 1089.16 15.5107 1089.16 17.4226C1089.16 18.9044 1089.66 20.195 1090.67 21.2943C1091.72 22.3937 1093.67 23.2541 1096.5 23.8755L1106.14 26.0264C1110.7 27.078 1113.94 28.6314 1115.86 30.6868C1117.82 32.6943 1118.81 35.2755 1118.81 38.4302C1118.81 41.3459 1118.01 43.8792 1116.43 46.0302C1114.85 48.1333 1112.64 49.7824 1109.81 50.9774C1106.98 52.1245 1103.69 52.6981 1099.95 52.6981C1094.91 52.6981 1090.62 51.766 1087.07 49.9019C1083.52 47.9899 1080.79 45.6239 1078.87 42.8038L1084.19 37.4981C1085.68 40.0314 1087.77 42.1107 1090.45 43.7359C1093.19 45.3132 1096.43 46.1019 1100.17 46.1019C1103.48 46.1019 1106.07 45.5283 1107.94 44.3811C1109.86 43.1862 1110.82 41.4893 1110.82 39.2906C1110.82 37.9522 1110.34 36.7572 1109.38 35.7057C1108.47 34.6063 1106.74 33.7698 1104.2 33.1962L1093.76 30.8302C1089.45 29.922 1086.26 28.4164 1084.19 26.3132C1082.13 24.2101 1081.1 21.5811 1081.1 18.4264C1081.1 15.7497 1081.84 13.3119 1083.33 11.1132C1084.82 8.91446 1086.93 7.16981 1089.66 5.87925C1092.44 4.58868 1095.75 3.9434 1099.59 3.9434Z" fill="white"/>
<path d="M1172.33 4.66038C1177.41 4.66038 1181.44 5.92704 1184.42 8.46038C1187.44 10.9937 1188.95 14.4113 1188.95 18.7132C1188.95 22.1547 1188.02 24.9987 1186.15 27.2453C1184.32 29.444 1181.8 30.9736 1178.59 31.834L1191.76 51.9811H1182.91L1170.82 33.0528H1160.6V51.9811H1152.97V4.66038H1172.33ZM1171.75 26.6717C1177.89 26.6717 1180.96 24.0906 1180.96 18.9283C1180.96 13.766 1177.89 11.1849 1171.75 11.1849H1160.6V26.6717H1171.75Z" fill="white"/>
<path d="M1201.32 51.9811V4.66038H1235.72V11.2566H1209.02V24.8792H1229.89V31.3321H1209.02V45.3849H1236.73V51.9811H1201.32Z" fill="white"/>
<path d="M1285.86 4.66038L1268.23 51.9811H1259.23L1241.6 4.66038H1249.8L1260.89 36.1358L1263.76 45.5283L1266.64 36.2075L1277.72 4.66038H1285.86Z" fill="white"/>
<path d="M1313.03 3.9434C1317.63 3.9434 1321.61 4.92327 1324.97 6.88302C1328.33 8.84277 1330.92 11.6629 1332.74 15.3434C1334.57 18.9761 1335.48 23.3019 1335.48 28.3208C1335.48 33.3396 1334.57 37.6893 1332.74 41.3698C1330.92 45.0025 1328.33 47.7987 1324.97 49.7585C1321.61 51.7182 1317.63 52.6981 1313.03 52.6981C1308.42 52.6981 1304.44 51.7182 1301.08 49.7585C1297.77 47.7987 1295.2 45.0025 1293.38 41.3698C1291.56 37.6893 1290.65 33.3396 1290.65 28.3208C1290.65 23.3019 1291.56 18.9761 1293.38 15.3434C1295.2 11.6629 1297.77 8.84277 1301.08 6.88302C1304.44 4.92327 1308.42 3.9434 1313.03 3.9434ZM1313.03 10.6113C1308.57 10.6113 1305.06 12.1648 1302.52 15.2717C1299.98 18.3308 1298.71 22.6805 1298.71 28.3208C1298.71 33.961 1299.98 38.3346 1302.52 41.4415C1305.06 44.5006 1308.57 46.0302 1313.03 46.0302C1317.54 46.0302 1321.06 44.5006 1323.6 41.4415C1326.15 38.3346 1327.42 33.961 1327.42 28.3208C1327.42 22.6805 1326.15 18.3308 1323.6 15.2717C1321.06 12.1648 1317.54 10.6113 1313.03 10.6113Z" fill="white"/>
<path d="M1354.63 45.3849H1380.82V51.9811H1346.93V4.66038H1354.63V45.3849Z" fill="white"/>
<path d="M1426.94 4.66038V33.8415C1426.94 40.1031 1425.29 44.8113 1421.98 47.966C1418.67 51.1208 1413.85 52.6981 1407.51 52.6981C1401.28 52.6981 1396.48 51.1208 1393.12 47.966C1389.81 44.8113 1388.16 40.1031 1388.16 33.8415V4.66038H1395.86V32.9094C1395.86 37.4025 1396.79 40.7245 1398.66 42.8755C1400.58 44.9786 1403.53 46.0302 1407.51 46.0302C1411.54 46.0302 1414.49 44.9786 1416.37 42.8755C1418.28 40.7245 1419.24 37.4025 1419.24 32.9094V4.66038H1426.94Z" fill="white"/>
<path d="M1475.44 4.66038V11.2566H1459.18V51.9811H1451.48V11.2566H1435.22V4.66038H1475.44Z" fill="white"/>
<path d="M1492.37 4.66038V51.9811H1484.67V4.66038H1492.37Z" fill="white"/>
<path d="M1526.17 3.9434C1530.77 3.9434 1534.75 4.92327 1538.11 6.88302C1541.47 8.84277 1544.06 11.6629 1545.88 15.3434C1547.71 18.9761 1548.62 23.3019 1548.62 28.3208C1548.62 33.3396 1547.71 37.6893 1545.88 41.3698C1544.06 45.0025 1541.47 47.7987 1538.11 49.7585C1534.75 51.7182 1530.77 52.6981 1526.17 52.6981C1521.56 52.6981 1517.58 51.7182 1514.22 49.7585C1510.91 47.7987 1508.35 45.0025 1506.52 41.3698C1504.7 37.6893 1503.79 33.3396 1503.79 28.3208C1503.79 23.3019 1504.7 18.9761 1506.52 15.3434C1508.35 11.6629 1510.91 8.84277 1514.22 6.88302C1517.58 4.92327 1521.56 3.9434 1526.17 3.9434ZM1526.17 10.6113C1521.71 10.6113 1518.2 12.1648 1515.66 15.2717C1513.12 18.3308 1511.85 22.6805 1511.85 28.3208C1511.85 33.961 1513.12 38.3346 1515.66 41.4415C1518.2 44.5006 1521.71 46.0302 1526.17 46.0302C1530.68 46.0302 1534.2 44.5006 1536.75 41.4415C1539.29 38.3346 1540.56 33.961 1540.56 28.3208C1540.56 22.6805 1539.29 18.3308 1536.75 15.2717C1534.2 12.1648 1530.68 10.6113 1526.17 10.6113Z" fill="white"/>
<path d="M1599 4.66038V51.9811H1589.86L1571.51 22.1547L1566.91 13.766H1566.83L1567.12 21.4377V51.9811H1560.07V4.66038H1569.14L1587.41 34.4151L1592.09 42.9472H1592.16L1591.88 35.2038V4.66038H1599Z" fill="white"/>
</svg>
