<svg width="32" height="32" viewBox="0 0 32 32" fill="none" xmlns="http://www.w3.org/2000/svg">
<path d="M6.64968 15.2097C6.64972 15.0308 6.68503 14.8536 6.75359 14.6884C6.82216 14.5231 6.92262 14.3731 7.04922 14.2469C7.17582 14.1206 7.32605 14.0207 7.4913 13.9528C7.65655 13.8849 7.83356 13.8504 8.01216 13.8513L10.271 13.8586C10.6312 13.8586 10.9766 14.002 11.2313 14.2571C11.4859 14.5123 11.629 14.8584 11.629 15.2192V23.7772C11.8834 23.7017 12.209 23.6211 12.5673 23.5366C12.8155 23.478 13.0367 23.3373 13.1951 23.137C13.3534 22.9367 13.4396 22.6888 13.4397 22.4333V11.8185C13.4397 11.4576 13.5827 11.1115 13.8374 10.8563C14.0921 10.6011 14.4375 10.4577 14.7977 10.4576H17.0634C17.4236 10.4577 17.769 10.6011 18.0237 10.8563C18.2783 11.1115 18.4214 11.4576 18.4214 11.8185V21.6707C18.4214 21.6707 18.9882 21.4409 19.54 21.2074C19.745 21.1205 19.92 20.9751 20.0431 20.7892C20.1662 20.6033 20.2319 20.3853 20.232 20.1622V8.41694C20.232 8.05614 20.3751 7.71012 20.6297 7.45497C20.8843 7.19983 21.2297 7.05645 21.5898 7.05638H23.8531C24.2131 7.05673 24.5581 7.20023 24.8125 7.45535C25.0669 7.71046 25.2098 8.05633 25.2098 8.41694V18.0888C27.1721 16.664 29.1607 14.9503 30.7388 12.8898C30.9678 12.5907 31.1193 12.2395 31.1798 11.8675C31.2404 11.4954 31.208 11.1142 31.0858 10.7577C30.3552 8.65205 29.194 6.72238 27.6764 5.09215C26.1588 3.46193 24.3183 2.16706 22.2725 1.29041C20.2267 0.413764 18.0208 -0.0253642 15.796 0.00113142C13.5711 0.027627 11.3762 0.519162 9.35185 1.44428C7.32746 2.3694 5.51813 3.70774 4.03963 5.37364C2.56113 7.03954 1.44602 8.99633 0.765665 11.1188C0.0853076 13.2412 -0.145317 15.4826 0.0885482 17.6995C0.322413 19.9164 1.01562 22.0599 2.12381 23.993C2.31688 24.3265 2.60093 24.5978 2.94259 24.7751C3.28425 24.9525 3.66933 25.0284 4.05258 24.9941C4.48073 24.9563 5.01381 24.9029 5.64759 24.8284C5.92343 24.797 6.17809 24.665 6.36307 24.4576C6.54806 24.2502 6.65045 23.9819 6.65074 23.7038V15.2097" fill="white"/>
<path d="M6.60144 28.9343C8.98716 30.6732 11.8065 31.7169 14.7475 31.95C17.6886 32.1832 20.6367 31.5966 23.2656 30.2553C25.8946 28.914 28.1019 26.8701 29.6435 24.3499C31.185 21.8297 32.0006 18.9314 32.0001 15.9756C32.0001 15.6058 31.9829 15.2418 31.9584 14.8789C26.1154 23.6099 15.3268 27.6916 6.60144 28.9343" fill="#F0B90B"/>
</svg>
