<svg width="32" height="32" viewBox="0 0 32 32" fill="none" xmlns="http://www.w3.org/2000/svg">
<path d="M28 0H4C1.79086 0 0 1.79086 0 4V28C0 30.2091 1.79086 32 4 32H28C30.2091 32 32 30.2091 32 28V4C32 1.79086 30.2091 0 28 0Z" fill="white"/>
<path d="M7.6364 10.7023C7.66311 10.4384 7.56248 10.1775 7.36543 9.99993L5.3582 7.5819V7.2207H11.5906L16.408 17.7858L20.6433 7.2207H26.5847V7.5819L24.8685 9.22737C24.7205 9.34014 24.6471 9.5255 24.6778 9.70896V21.7991C24.6471 21.9826 24.7205 22.1679 24.8685 22.2807L26.5445 23.9262V24.2874H18.1141V23.9262L19.8504 22.2406C20.021 22.07 20.021 22.0198 20.021 21.759V11.9865L15.1936 24.2472H14.5413L8.92103 11.9865V20.2038C8.87417 20.5493 8.98891 20.8971 9.23215 21.1469L11.4903 23.886V24.2472H5.08722V23.886L7.34535 21.1469C7.58682 20.8967 7.69487 20.5466 7.6364 20.2038V10.7023Z" fill="#12100E"/>
</svg>
