<svg width="32" height="32" viewBox="0 0 32 32" fill="none" xmlns="http://www.w3.org/2000/svg">
<path d="M16 32C24.8366 32 32 24.8366 32 16C32 7.16344 24.8366 0 16 0C7.16344 0 0 7.16344 0 16C0 24.8366 7.16344 32 16 32Z" fill="white"/>
<path d="M22.1041 9.4797C22.1041 9.4797 23.7688 8.8323 23.6301 10.4046C23.5838 11.052 23.1676 13.3178 22.8439 15.7687L21.7341 23.0288C21.7341 23.0288 21.6416 24.0924 20.8093 24.2774C19.9769 24.4624 18.7283 23.63 18.4971 23.445C18.3122 23.3063 15.0289 21.2254 13.8728 20.208C13.5491 19.9306 13.1792 19.3756 13.9191 18.7283L18.7746 14.104C19.3295 13.5491 19.8844 12.2543 17.5723 13.8265L11.0983 18.2196C11.0983 18.2196 10.3584 18.682 8.97112 18.2658L5.96533 17.341C5.96533 17.341 4.85551 16.6473 6.75146 15.9537C11.3757 13.7803 17.0636 11.5606 22.1041 9.4797Z" fill="black"/>
</svg>
