<svg width="39" height="32" viewBox="0 0 39 32" fill="none" xmlns="http://www.w3.org/2000/svg">
<path d="M34.7462 7.81061C34.7698 8.151 34.7698 8.49139 34.7698 8.83492C34.7698 19.3024 26.781 31.3745 12.1733 31.3745V31.3683C7.85819 31.3745 3.63266 30.1416 0 27.8169C0.62746 27.8922 1.25806 27.9298 1.89024 27.9314C5.46629 27.9345 8.94012 26.7377 11.7535 24.5337C8.35512 24.4694 5.37508 22.2592 4.33403 19.0326C5.52448 19.2616 6.75109 19.2145 7.91952 18.8961C4.21452 18.1494 1.54899 14.9024 1.54899 11.1314C1.54899 11.0969 1.54899 11.0639 1.54899 11.031C2.65294 11.6443 3.88899 11.9847 5.15335 12.0224C1.66379 9.6961 0.588145 5.06551 2.6954 1.44512C6.7275 6.39414 12.6766 9.40277 19.0628 9.7212C18.4228 6.96982 19.2971 4.08669 21.3604 2.15257C24.559 -0.846647 29.5897 -0.692922 32.5965 2.4961C34.375 2.14629 36.0797 1.49531 37.6397 0.572961C37.0469 2.40669 35.8061 3.96433 34.1486 4.95414C35.7227 4.76904 37.2607 4.34865 38.7091 3.70708C37.6429 5.3008 36.2999 6.68904 34.7462 7.81061Z" fill="white"/>
</svg>
